<?xml version="1.0" standalone="no"?>
<!DOCTYPE svg PUBLIC "-//W3C//DTD SVG 1.1//EN" "http://www.w3.org/Graphics/SVG/1.1/DTD/svg11.dtd">
<svg xmlns="http://www.w3.org/2000/svg">
<defs >
<font id="Chivo" horiz-adv-x="574" ><font-face
    font-family="Chivo Medium"
    units-per-em="1000"
    panose-1="0 0 0 0 0 0 0 0 0 0"
    ascent="940"
    descent="-250"
    alphabetic="0" />
<glyph unicode=" " horiz-adv-x="207" />
<glyph unicode="!" horiz-adv-x="300" d="M98 206L56 686H245L201 206H98ZM73 0V152H229V0H73Z" />
<glyph unicode="&quot;" horiz-adv-x="415" d="M272 401L241 539V686H357V539L325 401H272ZM89 401L57 539V686H174V539L141 401H89Z" />
<glyph unicode="#" horiz-adv-x="657" d="M94 0L131 172H28V266H152L184 401H71V496H202L247 696H349L304 496H429L474 696H575L528 496H625V401H511L481 266H592V172H458L421 0H321L358 172H231L194 0H94ZM252 265H380L411 401H283L252 265Z" />
<glyph unicode="$" horiz-adv-x="585" d="M233 -66L246 21Q187 27 138 49T59 113T29 218Q29 223 29 228T30 238H171Q170 236 170 231T170 222Q170 198 182 180T220 151T284 141Q325 141 350 148T387 169T399 206Q399 232 380 247T329 271T259 288T184 309T114
342T63 397T44 485Q44 541 70 580T143 642T247 672L233 759H339L326 674Q386 670 434 649T512 588T541 487V476H402V485Q402 507 390 523T356 550T299 560Q267 560 244 554T209 534T197 501Q197 476 216 462T267 438T337 420T414 400T484 367T535 314T555 231Q555
162 526 117T446 48T326 21L339 -66H233Z" />
<glyph unicode="%" horiz-adv-x="709" d="M104 0L522 686H606L189 0H104ZM151 337Q117 337 89 353T45 398T29 459V563Q29 597 45 625T89 669T151 686H168Q203 686 230 670T274 625T290 563V459Q290 426 274 398T231 354T168 337H151ZM160 402Q181 402 193 415T206
449V574Q206 594 194 607T160 621Q140 621 127 608T113 574V449Q113 429 126 416T160 402ZM541 -1Q507 -1 479 16T435 61T419 122V226Q419 260 435 288T479 332T541 349H558Q593 349 620 333T664 288T680 226V122Q680 89 664 61T621 16T558 -1H541ZM550 64Q571
64 583 78T596 112V236Q596 257 584 270T550 284Q530 284 517 271T503 236V112Q503 92 516 78T550 64Z" />
<glyph unicode="&amp;" horiz-adv-x="711" d="M302 0Q252 0 205 10T122 43T64 103T42 196Q42 260 75 298T164 354V360Q133 373 110 394T74 443T61 508Q61 555 81 590T135 649T211 684T299 696Q328 696 354 692V570Q332 576 314 576Q288 576 266 567T230 539T216
492Q216 471 227 452T259 421T309 408H433L477 540H585V408H676V293H585V0H302ZM311 113H428V293H308Q271 293 248 281T213 248T201 205Q201 159 233 136T311 113Z" />
<glyph unicode="&apos;" horiz-adv-x="231" d="M89 401L57 539V686H174V539L141 401H89Z" />
<glyph unicode="(" horiz-adv-x="307" d="M195 -157Q118 -70 77 39T36 265Q36 381 77 490T195 686H281Q247 629 220 558T178 411T163 265Q163 196 178 120T219 -28T281 -157H195Z" />
<glyph unicode=")" horiz-adv-x="306" d="M20 -157Q55 -100 81 -29T123 119T138 265Q138 336 123 411T81 557T20 686H106Q183 599 224 490T265 265Q265 148 224 39T106 -157H20Z" />
<glyph unicode="*" horiz-adv-x="496" d="M164 313L78 373L183 492L29 529L63 624L209 561L196 720H300L284 561L436 623L467 527L311 491L414 373L328 312L246 449L164 313Z" />
<glyph unicode="+" horiz-adv-x="616" d="M253 0V202H52V310H253V512H362V310H564V202H362V0H253Z" />
<glyph unicode="," horiz-adv-x="274" d="M62 -172V-153Q97 -116 114 -78T131 1H62V169H216V27Q216 -30 198 -80T142 -172H62Z" />
<glyph unicode="-" horiz-adv-x="363" d="M55 208V339H309V208H55Z" />
<glyph unicode="." horiz-adv-x="274" d="M59 0V152H215V0H59Z" />
<glyph unicode="/" horiz-adv-x="638" d="M16 -171L506 686H617L128 -171H16Z" />
<glyph unicode="0" horiz-adv-x="615" d="M291 -10Q224 -10 169 22T82 109T49 232V454Q49 523 81 578T169 664T291 696H325Q393 696 447 665T534 578T566 454V232Q566 164 534 109T448 22T325 -10H291ZM307 108Q336 108 358 122T394 159T408 212V475Q408 504 395
527T359 565T308 579Q279 579 257 565T221 528T207 475V212Q207 183 220 160T256 122T307 108Z" />
<glyph unicode="1" horiz-adv-x="615" d="M80 0V124H244V514H80V606Q120 609 166 622T259 654T346 696H400V124H560V0H80Z" />
<glyph unicode="2" horiz-adv-x="615" d="M48 0V35Q48 95 70 139T140 219L333 361Q364 384 381 413T398 478Q398 521 373 545T297 570Q267 570 244 558T208 523T194 472Q194 465 194 459T195 446H52Q52 451 52 455T52 464Q52 531 82 583T168 665T300 696H323Q396
696 448 669T529 594T558 482Q558 431 541 392T491 321T415 259L290 171Q283 166 276 160T263 148T253 135H560V0H48Z" />
<glyph unicode="3" horiz-adv-x="615" d="M276 -10Q197 -10 144 16T65 87T38 187V206H180Q180 152 212 132T296 111Q349 111 381 133T413 207Q413 239 400 259T364 290T313 300H217V402H300Q327 402 349 412T384 442T397 492Q397 519 384 537T347 565T295 575Q247
575 220 552T193 488H58V510Q58 564 88 606T173 672T298 696H321Q389 696 441 672T523 606T553 511Q553 475 540 446T505 396T453 361V354Q504 338 537 300T571 195Q571 136 538 90T445 17T307 -10H276Z" />
<glyph unicode="4" horiz-adv-x="615" d="M332 0V161H33V282Q49 309 68 347T109 431T150 525T186 617T212 696H355Q347 659 329 614T288 519T239 425T189 342T143 281H332V426Q342 441 355 465T380 517T403 571T418 614H483V281H577V161H483V0H332Z" />
<glyph unicode="5" horiz-adv-x="615" d="M306 -10Q228 -10 170 18T80 98T47 221H190Q190 191 203 167T242 129T300 115Q336 115 360 129T397 169T410 226Q410 275 380 306T301 337Q270 337 244 323T202 287L75 305L104 686H522V548H225L214 405Q234 424 269 439T352
454Q414 454 463 430T539 357T567 236Q567 166 534 111T441 23T306 -10Z" />
<glyph unicode="6" horiz-adv-x="615" d="M301 -10Q231 -10 176 21T88 107T55 232V454Q55 525 88 579T177 665T302 696H323Q388 696 440 670T524 593T556 469H413Q413 519 385 547T315 575Q286 575 263 562T226 526T212 474V373Q239 403 278 419T358 435Q419 435
467 411T544 341T572 227Q572 157 539 104T448 20T322 -10H301ZM315 105Q349 105 371 119T405 160T417 222Q417 258 405 284T370 324T315 338Q282 338 259 324T224 284T212 223Q212 186 224 160T259 119T315 105Z" />
<glyph unicode="7" horiz-adv-x="615" d="M151 0Q151 80 171 155T225 299T300 432T384 550H65V686H564V612Q501 530 456 456T382 310T340 162T328 0H151Z" />
<glyph unicode="8" horiz-adv-x="615" d="M302 -10Q227 -10 170 12T82 79T50 188Q50 251 79 289T157 349V353Q121 376 97 409T73 500Q73 564 105 607T191 673T311 696Q377 696 429 674T512 608T543 500Q543 461 532 434T502 387T459 353V349Q507 327 536 290T566
188Q566 125 533 81T441 13T302 -10ZM308 99Q359 99 383 127T407 203Q407 251 381 277T308 304Q260 304 235 277T209 202Q209 153 234 126T308 99ZM308 396Q349 396 374 421T400 493Q400 539 375 564T307 589Q264 589 240 564T215 493Q215 446 241 421T308 396Z"
/>
<glyph unicode="9" horiz-adv-x="615" d="M307 -10Q232 -10 177 17T92 96T62 218H205Q205 170 232 141T304 112Q333 112 356 125T394 161T408 212V314Q381 282 342 267T269 251Q207 251 157 275T78 347T48 462Q48 534 81 586T173 667T307 696Q382 696 440 666T532
581T565 454V232Q565 160 532 106T440 21T307 -10ZM305 349Q339 349 361 363T396 404T408 465Q408 502 396 528T360 568T305 582Q272 582 249 568T214 527T202 465Q202 430 214 404T249 363T305 349Z" />
<glyph unicode=":" horiz-adv-x="290" d="M67 0V152H223V0H67ZM67 360V512H223V360H67Z" />
<glyph unicode=";" horiz-adv-x="289" d="M69 -172V-153Q104 -116 121 -78T138 1H69V169H223V27Q223 -30 205 -80T149 -172H69ZM67 360V512H223V360H67Z" />
<glyph unicode="&lt;" horiz-adv-x="615" d="M553 -4L44 192V317L553 514V396L174 254L553 113V-4Z" />
<glyph unicode="=" horiz-adv-x="612" d="M52 309V417H560V309H52ZM52 92V201H560V92H52Z" />
<glyph unicode="&gt;" horiz-adv-x="615" d="M62 -4V113L441 254L62 396V514L571 317V192L62 -4Z" />
<glyph unicode="?" horiz-adv-x="559" d="M217 204V275Q217 303 231 324T265 364T306 403T341 447T355 502Q355 522 346 540T319 570T269 583Q240 583 222 573T195 547T183 513T180 480Q180 468 180 461T181 452H33Q32 462 31 471T30 492Q30 524 41 554T74 610T126
655T197 686T285 697Q345 697 389 681T463 636T508 572T523 497Q523 448 506 415T465 359T415 319T373 284T356 245V204H217ZM208 0V152H364V0H208Z" />
<glyph unicode="@" horiz-adv-x="900" d="M430 -167Q306 -167 218 -123T83 15T35 255Q35 376 69 460T162 596T298 673T465 697Q581 697 672 655T816 525T869 303Q869 217 852 158T807 61T743 8T673 -9Q612 -9 582 15T546 76Q519 40 478 15T375 -10Q344 -10 313
-5T257 16T216 62T200 140Q200 194 224 227T292 279T399 304T539 311V349Q539 389 517 407T455 425Q422 425 395 409T368 362V355H217Q216 358 216 362T216 372Q216 415 244 449T324 502T444 521H469Q582 521 637 478T692 362V126Q692 107 701 99T721 90Q733 90
747 99T773 132T794 197T802 304Q802 417 759 491T640 602T464 639Q351 639 270 597T146 469T103 254Q103 73 181 -18T430 -109Q453 -109 485 -105T547 -93T595 -77V-140Q574 -148 544 -154T483 -163T430 -167ZM441 90Q466 90 488 101T525 135T539 191V232Q481
232 442 224T384 199T364 152Q364 117 385 104T441 90Z" />
<glyph unicode="A" horiz-adv-x="693" d="M1 0L246 686H448L692 0H518L469 136H211L163 0H1ZM251 254H429L343 513H338L251 254Z" />
<glyph unicode="B" horiz-adv-x="655" d="M71 0V686H416Q468 686 509 667T575 612T599 525Q599 476 582 443T539 389T482 359V354Q504 349 527 339T570 310T602 264T615 199Q615 140 588 96T515 26T414 0H71ZM228 124H371Q396 124 414 135T442 167T453 212Q453
238 442 255T413 281T372 290H228V124ZM228 410H366Q390 410 406 421T431 452T440 494Q440 531 422 548T371 566H228V410Z" />
<glyph unicode="C" horiz-adv-x="678" d="M343 -10Q281 -10 227 8T132 65T68 162T45 301V385Q45 463 68 521T133 618T227 676T341 696H363Q420 696 470 680T559 629T618 541T640 413H483Q483 474 468 508T422 556T351 570Q322 570 299 562T258 535T232 489T222
420V266Q222 214 238 181T283 132T351 116Q397 116 427 130T474 177T490 272H640Q640 203 619 150T560 62T472 8T365 -10H343Z" />
<glyph unicode="D" horiz-adv-x="691" d="M71 0V686H355Q416 686 468 667T561 610T624 517T647 389V314Q647 242 625 185T562 86T469 22T355 0H71ZM239 128H341Q377 128 406 145T453 195T470 279V418Q470 468 453 499T407 545T341 560H239V128Z" />
<glyph unicode="E" horiz-adv-x="598" d="M71 0V686H561L544 558H236V412H524V288H236V128H546L564 0H71Z" />
<glyph unicode="F" horiz-adv-x="559" d="M71 0V686H542L525 558H236V401H498V276H236V0H71Z" />
<glyph unicode="G" horiz-adv-x="693" d="M323 -10Q263 -10 212 11T124 72T66 170T45 301V385Q45 459 67 516T129 614T225 675T346 696H368Q424 696 473 679T559 630T617 550T638 442H483Q483 488 467 516T421 557T352 570Q323 570 300 562T259 535T232 488T222
420V266Q222 227 231 199T258 153T299 125T352 116Q381 116 405 122T447 143T474 181T484 240V264H336V375H638V137Q638 89 640 59T645 0H554L529 79Q498 38 444 14T331 -10H323Z" />
<glyph unicode="H" horiz-adv-x="696" d="M71 0V686H239V417H458V686H625V0H459V284H240V0H71Z" />
<glyph unicode="I" horiz-adv-x="423" d="M47 0V122H128V564H47V686H376V564H296V122H376V0H47Z" />
<glyph unicode="J" horiz-adv-x="540" d="M231 -10Q168 -10 121 12T47 76T20 178V235H174V187Q174 152 193 134T241 116Q260 116 275 124T300 148T309 187V686H474V189Q474 128 446 84T368 15T254 -10H231Z" />
<glyph unicode="K" horiz-adv-x="668" d="M71 0V686H239V377L480 686H659L436 405L668 0H480L326 276L239 173V0H71Z" />
<glyph unicode="L" horiz-adv-x="542" d="M71 0V686H239V132H514L531 0H71Z" />
<glyph unicode="M" horiz-adv-x="982" d="M71 0V686H343L489 251H493L638 686H911V0H745V492H740L577 0H389L227 492H222V0H71Z" />
<glyph unicode="N" horiz-adv-x="695" d="M71 0V686H211L433 358L468 297L472 299V686H625V0H481L252 339L228 384L224 383V0H71Z" />
<glyph unicode="O" horiz-adv-x="710" d="M335 -10Q275 -10 223 11T130 72T68 170T45 301V384Q45 457 67 515T130 613T222 674T335 695H376Q436 695 488 674T581 613T643 515T666 384V301Q666 228 644 170T581 72T489 11T376 -10H335ZM355 116Q384 116 408 125T450
152T479 199T489 266V419Q489 458 479 486T451 532T408 560T356 569Q328 569 304 560T261 533T232 486T222 419V266Q222 227 232 199T260 153T303 125T355 116Z" />
<glyph unicode="P" horiz-adv-x="639" d="M71 0V686H413Q469 686 515 660T589 589T616 488V471Q616 415 588 368T514 291T410 262H238V0H71ZM238 387H366Q391 387 409 398T437 428T448 474Q448 508 426 534T365 560H238V387Z" />
<glyph unicode="Q" horiz-adv-x="710" d="M500 -155Q429 -155 385 -131T317 -73T287 -5Q236 3 192 26T114 89T63 181T45 301V384Q45 457 67 515T130 613T222 674T335 695H376Q436 695 488 674T581 613T643 515T666 384V301Q666 218 639 157T563 57T453 2Q459 -12
468 -24T495 -45T540 -53Q559 -53 581 -49T625 -39T662 -28V-117Q649 -123 627 -132T573 -148T500 -155ZM355 116Q384 116 408 125T450 152T479 199T489 266V419Q489 458 479 486T451 532T408 560T356 569Q328 569 304 560T261 533T232 486T222 419V266Q222 227
232 199T260 153T303 125T355 116Z" />
<glyph unicode="R" horiz-adv-x="679" d="M561 -8Q524 -8 497 3T454 43T438 121Q438 151 432 176T414 221T383 251T337 262H236V0H71V686H429Q478 686 520 666T590 607T617 515Q617 471 600 435T556 373T495 334V329Q516 323 535 310T570 276T594 228T604 168Q604
144 606 123T613 86T628 58T655 42V7Q635 -1 610 -4T561 -8ZM236 387H373Q394 387 411 400T438 436T448 484Q448 521 427 540T375 560H236V387Z" />
<glyph unicode="S" horiz-adv-x="645" d="M310 -10Q236 -10 174 12T75 81T37 204Q37 209 37 214T38 226H192Q191 222 191 219T191 210Q191 183 204 163T244 131T312 119Q356 119 383 127T422 151T434 192Q434 219 414 235T359 261T284 280T203 302T128 338T73
396T52 489Q52 558 90 604T190 673T327 696Q400 696 459 675T554 610T590 495V482H438V491Q438 516 426 534T389 562T329 572Q295 572 271 565T233 545T220 509Q220 481 241 465T296 440T371 421T454 400T529 365T584 308T605 218Q605 136 567 86T461 13T310 -10Z"
/>
<glyph unicode="T" horiz-adv-x="584" d="M208 0V556H20V686H565V556H376V0H208Z" />
<glyph unicode="U" horiz-adv-x="685" d="M319 -10Q241 -10 184 19T97 100T66 221V686H233V222Q233 175 263 146T343 116Q392 116 422 145T452 222V686H619V221Q619 152 585 100T491 19T352 -10H319Z" />
<glyph unicode="V" horiz-adv-x="642" d="M223 0L3 686H177L326 212H330L479 686H639L417 0H223Z" />
<glyph unicode="W" horiz-adv-x="992" d="M201 0L10 686H183L299 250H303L421 686H590L706 250H710L826 686H982L792 0H608L501 399H495L388 0H201Z" />
<glyph unicode="X" horiz-adv-x="663" d="M-3 0L224 362L20 686H213L337 481H341L465 686H644L439 361L666 0H471L326 242H322L177 0H-3Z" />
<glyph unicode="Y" horiz-adv-x="626" d="M229 0V264L-3 686H185L318 422H322L458 686H628L397 264V0H229Z" />
<glyph unicode="Z" horiz-adv-x="605" d="M23 0V51L332 558H47V686H568V636L263 129H576V0H23Z" />
<glyph unicode="[" horiz-adv-x="311" d="M65 -161V686H275V616H187V-90H275V-161H65Z" />
<glyph unicode="\" horiz-adv-x="638" d="M504 -171L15 686H126L616 -171H504Z" />
<glyph unicode="]" horiz-adv-x="311" d="M28 -161V-90H116V616H28V686H239V-161H28Z" />
<glyph unicode="^" horiz-adv-x="599" d="M40 0L237 511H362L559 0H442L300 382L158 0H40Z" />
<glyph unicode="_" horiz-adv-x="694" d="M97 -155V-64H597V-155H97Z" />
<glyph unicode="`" horiz-adv-x="604" d="M306 586L192 757L193 760H327L412 586H306Z" />
<glyph unicode="a" horiz-adv-x="613" d="M196 -10Q155 -10 118 4T58 49T34 135Q34 189 57 223T125 277T232 303T372 311V352Q372 392 350 408T288 425Q252 425 227 409T202 362V355H51Q50 358 50 362T50 372Q50 415 78 449T157 502T278 521H303Q415 521 470 478T525
362V126Q525 107 534 99T555 90Q565 90 575 93T594 101V12Q581 2 559 -4T503 -10Q465 -10 439 1T398 32T380 76Q352 40 307 15T196 -10ZM274 90Q299 90 321 101T358 135T372 191V232Q314 232 275 224T217 199T197 152Q197 117 218 104T274 90Z" />
<glyph unicode="b" horiz-adv-x="601" d="M343 -10Q232 -10 173 78L119 0H62V720H219V453Q242 483 277 502T363 521Q417 521 462 496T535 416T562 275V253Q562 164 532 106T452 19T343 -10ZM308 90Q333 90 352 103T383 141T395 203V311Q395 345 384 369T354 405T310
418Q285 418 265 406T232 369T219 310V202Q219 165 231 140T263 103T308 90Z" />
<glyph unicode="c" horiz-adv-x="563" d="M276 -10Q211 -10 157 22T71 111T39 239V273Q39 327 58 372T110 450T187 502T281 521H303Q374 521 424 494T502 419T529 307H393Q393 345 382 370T351 408T301 421Q261 421 234 394T206 316V197Q206 147 231 119T303 90Q336
90 357 101T390 137T401 204H529Q529 136 500 88T418 15T298 -10H276Z" />
<glyph unicode="d" horiz-adv-x="602" d="M246 -10Q184 -10 138 18T65 105T39 253V264Q39 350 67 407T141 492T242 521Q295 521 330 502T383 453V720H540V0H416L400 66Q377 35 340 13T246 -10ZM294 90Q319 90 339 102T371 140T383 202V310Q383 345 371 369T339
405T294 418Q257 418 232 390T206 310V203Q206 166 217 141T249 103T294 90Z" />
<glyph unicode="e" horiz-adv-x="589" d="M294 -10Q219 -10 162 19T72 105T39 242V269Q39 350 72 406T164 492T297 521H316Q388 521 440 493T520 415T548 298V235H206Q206 193 215 160T246 109T303 90Q334 90 355 102T389 136T401 191H547Q547 133 517 88T432
16T306 -10H294ZM206 311H393Q393 368 368 394T302 421Q261 421 235 393T206 311Z" />
<glyph unicode="f" horiz-adv-x="397" d="M96 0V396H34V511H96V588Q96 663 141 695T256 728Q272 728 293 726T336 719T372 708V616Q361 620 341 623T310 627Q298 627 285 624T262 608T253 567V511H373V396H253V0H96Z" />
<glyph unicode="g" horiz-adv-x="584" d="M147 -188Q113 -188 84 -172T37 -128T19 -66Q19 -30 39 1T94 49Q72 63 60 85T47 134Q47 171 72 198T134 238Q103 255 82 283T61 352Q61 396 85 434T158 497T281 521Q311 521 336 519T380 511Q421 534 438 558T456 603H576Q576
567 563 541T526 497T469 471L468 468Q492 448 507 421T522 362Q522 318 497 281T427 222T324 200H251Q220 200 205 189T189 160Q189 142 203 131T251 119H419Q493 119 534 77T576 -28Q576 -71 554 -107T493 -166T403 -188H147ZM210 -93H373Q398 -93 415 -78T433
-39Q433 -19 417 -4T378 11H210Q185 11 169 -4T152 -41Q152 -62 168 -77T210 -93ZM294 283Q332 283 355 305T378 360Q378 392 355 415T294 438Q256 438 233 415T210 360Q210 328 233 306T294 283Z" />
<glyph unicode="h" horiz-adv-x="598" d="M62 0V720H219V448Q248 484 285 502T369 521Q419 521 456 501T515 445T537 360V0H380V324Q380 365 359 386T303 407Q280 407 261 395T231 364T219 319V0H62Z" />
<glyph unicode="i" horiz-adv-x="288" d="M66 0V511H223V0H66ZM64 602V720H224V602H64Z" />
<glyph unicode="j" horiz-adv-x="288" d="M63 -186Q47 -186 25 -184T-18 -177T-53 -166V-72Q-41 -77 -22 -81T9 -86Q30 -86 48 -74T66 -17V511H223V-39Q223 -114 179 -150T63 -186ZM65 602V720H225V602H65Z" />
<glyph unicode="k" horiz-adv-x="584" d="M62 0V720H219V284L394 511H575L385 278L581 0H395L274 171L219 118V0H62Z" />
<glyph unicode="l" horiz-adv-x="283" d="M62 0V720H219V0H62Z" />
<glyph unicode="m" horiz-adv-x="871" d="M62 0V511H180L198 437Q226 476 260 498T347 521Q397 521 435 503T495 441Q519 482 556 501T644 521Q694 521 731 502T789 446T810 360V0H655V324Q655 365 637 385T586 406Q566 406 550 395T524 365T514 321V0H359V324Q359
365 340 385T290 406Q269 406 253 395T227 365T217 321V0H62Z" />
<glyph unicode="n" horiz-adv-x="598" d="M62 0V511H179L197 437Q228 480 269 500T365 521Q417 521 455 502T515 446T536 360V0H379V324Q379 365 358 386T303 407Q280 407 261 395T231 364T219 319V0H62Z" />
<glyph unicode="o" horiz-adv-x="604" d="M290 -10Q218 -10 161 22T72 111T39 246V265Q39 343 71 400T161 489T290 521H314Q386 521 443 490T532 401T565 265V246Q565 169 533 111T443 22T314 -10H290ZM302 90Q329 90 350 103T385 140T398 198V313Q398 347 385
371T351 408T302 421Q275 421 254 408T219 371T206 313V198Q206 165 219 141T253 103T302 90Z" />
<glyph unicode="p" horiz-adv-x="601" d="M62 -181V511H185L202 447Q224 478 261 499T351 521Q411 521 458 496T534 414T562 268V247Q562 162 534 105T460 19T360 -10Q306 -10 272 9T219 58V-181H62ZM308 91Q333 91 352 104T383 141T395 199V307Q395 344 384 369T353
406T308 419Q284 419 264 407T231 370T219 307V199Q219 165 230 141T262 104T308 91Z" />
<glyph unicode="q" horiz-adv-x="602" d="M382 -180V58Q364 34 329 12T241 -10Q180 -10 135 18T65 103T39 245V256Q39 346 69 404T150 492T259 521Q314 521 354 502T423 439L483 511H539V-180H382ZM293 91Q318 91 338 104T370 141T382 199V307Q382 345 371 369T339
406T293 419Q269 419 249 406T218 369T206 307V199Q206 165 217 141T249 104T293 91Z" />
<glyph unicode="r" horiz-adv-x="501" d="M62 0V511H180L198 437Q201 441 209 454T235 483T277 510T336 521Q387 521 419 502T466 448T482 363Q482 352 481 338T479 311H349V333Q349 350 343 367T322 394T284 405Q266 405 253 398T232 380T221 355T217 327V0H62Z" />
<glyph unicode="s" horiz-adv-x="552" d="M249 -10Q203 -10 164 1T96 32T50 81T33 145Q33 150 33 154T34 164H165Q164 162 164 160T164 156Q164 132 180 118T221 97T273 90Q293 90 316 95T357 111T374 141Q374 162 357 173T310 190T247 201T177 215T113 240T67
285T49 358Q49 399 67 430T118 481T191 511T273 521H296Q334 521 371 512T438 484T486 441T504 384Q504 378 504 372T503 361H370V369Q370 379 364 389T346 406T318 418T279 423Q261 423 244 420T215 410T195 396T188 377Q188 357 205 347T252 332T317 322T387
309T451 284T498 239T516 164Q516 115 497 82T446 28T372 -1T287 -10H249Z" />
<glyph unicode="t" horiz-adv-x="399" d="M248 -10Q201 -10 165 2T109 43T88 122V396H32V511H93L148 674H245V511H364V396H245V159Q245 115 263 103T302 90Q313 90 332 94T364 104V10Q350 4 329 -1T286 -8T248 -10Z" />
<glyph unicode="u" horiz-adv-x="625" d="M225 -10Q147 -10 103 33T58 158V511H215V191Q215 148 233 127T289 105Q313 105 332 116T363 148T375 193V511H532V126Q532 107 541 99T562 90Q572 90 582 93T601 101V12Q588 2 566 -4T511 -10Q472 -10 447 0T408 30T387
73Q362 34 319 12T225 -10Z" />
<glyph unicode="v" horiz-adv-x="546" d="M183 0L7 511H175L277 179H283L386 511H539L361 0H183Z" />
<glyph unicode="w" horiz-adv-x="843" d="M165 0L11 511H175L256 209H262L347 511H507L591 209H598L679 511H831L677 0H504L425 278H419L341 0H165Z" />
<glyph unicode="x" horiz-adv-x="567" d="M6 0L182 268L22 511H203L289 368H292L379 511H549L386 264L559 0H378L279 165H276L176 0H6Z" />
<glyph unicode="y" horiz-adv-x="542" d="M129 -186Q101 -186 79 -183T40 -172V-63Q51 -68 70 -72T109 -76Q138 -76 154 -65T181 -33T199 12L5 511H173L278 199H285L382 511H537L356 30Q334 -31 303 -80T230 -157T129 -186Z" />
<glyph unicode="z" horiz-adv-x="489" d="M30 0V52L243 409H43V511H449V461L235 103H457V0H30Z" />
<glyph unicode="{" horiz-adv-x="335" d="M301 -159Q239 -166 195 -156T128 -118T104 -47V169Q104 199 80 212T27 224V303Q53 303 78 316T104 360V574Q104 619 127 646T195 683T301 686V627Q287 627 270 624T239 611T224 581L215 371Q213 322 191 295T119 268V259Q169
259 191 232T215 156L224 -52Q225 -72 238 -82T269 -96T301 -99V-159Z" />
<glyph unicode="|" horiz-adv-x="237" d="M68 -199V720H169V-199H68Z" />
<glyph unicode="}" horiz-adv-x="335" d="M28 -159V-99Q43 -99 60 -96T90 -83T105 -52L114 156Q116 205 137 232T210 259V268Q159 268 138 295T114 371L105 581Q104 601 91 610T60 623T28 627V686Q90 694 134 684T201 646T225 574V360Q225 330 249 317T301 303V224Q275
225 250 212T225 169V-47Q225 -91 201 -118T133 -156T28 -159Z" />
<glyph unicode="~" horiz-adv-x="660" d="M49 200V307Q57 316 72 329T108 355T155 376T212 385Q244 385 273 375T330 352T387 329T450 319Q480 319 506 328T554 349T590 375T613 397V290Q605 280 590 267T554 242T507 221T450 212Q418 212 389 222T332 245T275
268T212 278Q181 278 155 269T108 247T72 221T49 200Z" />
<glyph unicode="&#xa0;" horiz-adv-x="207" />
<glyph unicode="&#xa1;" horiz-adv-x="285" d="M196 305L238 -175H49L93 305H196ZM221 511V360H65V511H221Z" />
<glyph unicode="&#xa2;" horiz-adv-x="565" d="M235 -9L249 79Q190 86 142 119T65 205T37 325V359Q37 426 65 479T141 566T249 606L235 694H342L330 606Q392 600 436 572T503 499T526 394H390Q390 432 380 457T349 495T299 508Q259 508 232 479T204 400V285Q204
235 232 206T300 177Q333 177 354 188T387 224T398 291H526Q526 227 502 182T434 110T330 79L343 -9H235Z" />
<glyph unicode="&#xa3;" horiz-adv-x="648" d="M64 0V120H139V280H64V399H139V502Q139 560 171 604T257 674T377 700Q443 700 497 675T583 605T615 503V477H458V501Q458 538 435 559T377 580Q344 580 321 559T297 501V399H441V280H296L279 120H572V0H64Z" />
<glyph unicode="&#xa4;" horiz-adv-x="612" d="M104 82L49 138L106 195Q82 222 70 259T58 338Q58 380 70 418T106 482L49 539L106 596L162 540Q188 562 226 574T306 586Q348 586 385 574T446 541L504 599L564 538L509 482Q531 458 542 419T554 338Q554 297 542
259T507 193L563 138L508 83L451 140Q425 116 387 103T306 90Q264 90 226 102T161 139L104 82ZM306 183Q349 183 382 204T434 261T453 338Q453 381 434 416T382 472T306 493Q264 493 231 473T178 417T158 338Q158 296 178 261T231 204T306 183Z" />
<glyph unicode="&#xa5;" horiz-adv-x="689" d="M256 0V231H64V311H231L197 370H64V451H153L23 686H211L344 422H349L484 686H655L524 451H619V370H481L448 311H619V231H422V0H256Z" />
<glyph unicode="&#xa6;" horiz-adv-x="237" d="M68 360V720H169V360H68ZM68 -200V160H169V-200H68Z" />
<glyph unicode="&#xa7;" horiz-adv-x="551" d="M268 -185Q228 -185 190 -176T121 -149T72 -103T54 -36Q54 -33 54 -31T55 -27H187V-33Q187 -43 192 -52T208 -70T235 -82T273 -87Q292 -87 308 -83T336 -72T355 -54T362 -32Q362 -6 339 13T278 48T199 82T120 123T60
179T36 258Q36 303 58 341T121 405Q88 424 69 459T49 534Q49 576 67 606T117 657T188 686T269 696H278Q318 696 357 687T427 660T477 613T496 547Q496 545 496 542T496 536H364V543Q364 553 359 562T343 580T316 593T276 598Q254 598 238 594T211 581T195 561T189
539Q189 513 212 495T273 461T352 428T431 389T491 334T515 253Q515 209 493 170T429 107Q461 87 481 56T502 -17Q502 -59 483 -91T430 -143T356 -174T273 -185H268ZM349 151Q361 157 371 166T388 189T395 218Q395 246 375 266T325 303T262 332T205 357Q194 352
184 343T167 320T160 290Q160 263 179 242T229 205T292 176T349 151Z" />
<glyph unicode="&#xa8;" horiz-adv-x="604" d="M120 606V728H244V606H120ZM360 606V728H484V606H360Z" />
<glyph unicode="&#xa9;" horiz-adv-x="773" d="M387 -10Q313 -10 249 17T137 93T61 206T33 344Q33 417 60 481T136 593T249 668T387 696Q460 696 524 669T637 593T713 481T741 344Q741 270 714 206T637 94T524 18T387 -10ZM387 44Q451 44 504 66T597 127T657 222T679
344Q679 410 658 464T597 559T505 621T387 643Q322 643 268 621T176 559T116 465T95 344Q95 278 116 223T175 128T268 66T387 44ZM386 131Q336 131 294 150T228 209T203 307V380Q203 436 227 475T293 535T383 556Q441 556 481 537T543 479T564 384H469Q469 431
450 454T389 478Q357 478 335 458T312 401V286Q312 250 334 230T389 209Q435 209 454 231T473 302H564Q564 246 543 208T481 151T386 131Z" />
<glyph unicode="&#xaa;" horiz-adv-x="419" d="M144 375Q117 375 94 384T57 413T43 467Q43 510 68 532T138 562T245 570V591Q245 614 233 624T197 635Q179 635 163 626T147 599V594H54Q53 597 53 600T52 605Q52 645 90 670T190 696H206Q274 696 306 669T339 599V458Q339
447 345 443T356 438Q362 438 367 440T381 446V389Q371 383 358 379T325 375Q290 375 272 388T250 424Q233 404 207 390T144 375ZM188 438Q211 438 228 453T245 497V520Q212 520 189 516T155 501T144 473Q144 453 156 446T188 438Z" />
<glyph unicode="&#xab;" horiz-adv-x="447" d="M338 163L217 337L338 511H403L314 337L403 163H338ZM156 163L36 337L156 511H221L133 337L221 163H156Z" />
<glyph unicode="&#xac;" horiz-adv-x="622" d="M441 165V346H34V471H565V165H441Z" />
<glyph unicode="&#xad;" horiz-adv-x="363" d="M55 208V339H309V208H55Z" />
<glyph unicode="&#xae;" horiz-adv-x="773" d="M387 -10Q313 -10 249 17T137 93T61 206T33 344Q33 417 60 481T136 593T249 668T387 696Q460 696 524 669T637 593T713 481T741 344Q741 270 714 206T637 94T524 18T387 -10ZM387 44Q451 44 504 66T597 127T657 222T679
344Q679 410 658 464T597 559T505 621T387 643Q322 643 268 621T176 559T116 465T95 344Q95 278 116 223T175 128T268 66T387 44ZM523 131Q501 131 484 137T458 161T448 209Q448 234 443 255T424 290T389 303H330V135H230V547H443Q488 547 523 520T558 445Q558
408 537 380T486 343Q506 337 520 322T542 285T550 236Q550 222 551 206T559 178T580 161V140Q569 135 553 133T523 131ZM330 375H412Q436 375 445 390T454 428Q454 446 444 460T412 474H330V375Z" />
<glyph unicode="&#xaf;" horiz-adv-x="604" d="M130 613V696H474V613H130Z" />
<glyph unicode="&#xb0;" horiz-adv-x="365" d="M183 396Q142 396 108 416T53 470T33 546Q33 587 53 621T107 675T183 696Q224 696 258 676T312 621T333 546Q333 505 313 471T258 416T183 396ZM182 471Q213 471 234 492T256 545Q256 576 235 597T181 619Q152 619
130 598T108 545Q108 514 129 493T182 471Z" />
<glyph unicode="&#xb1;" horiz-adv-x="616" d="M253 149V276H52V385H253V512H362V385H564V276H362V149H253ZM53 0V109H562V0H53Z" />
<glyph unicode="&#xb2;" horiz-adv-x="374" d="M45 422V441Q45 473 57 496T93 539L199 621Q215 633 224 649T233 684Q233 706 219 719T178 733Q156 733 142 719T127 683Q127 679 127 676T127 667H47Q47 670 47 673T47 679Q47 732 85 768T185 805Q252 805 287 773T323
687Q323 649 307 622T264 575L188 521Q179 515 174 509T164 498H323V422H45Z" />
<glyph unicode="&#xb3;" horiz-adv-x="357" d="M174 413Q99 413 65 441T31 521V533H110V526Q110 507 126 494T169 481Q196 481 213 494T231 533Q231 560 216 571T180 582H127V640H173Q194 640 208 651T223 688Q223 710 209 721T170 733Q148 733 133 721T118 692V686H41V699Q41
744 78 772T176 801Q238 801 274 774T310 700Q310 669 295 647T259 616Q285 606 302 586T320 528Q320 478 280 446T174 413Z" />
<glyph unicode="&#xb4;" horiz-adv-x="604" d="M192 586L277 760H411L412 757L298 586H192Z" />
<glyph unicode="&#xb5;" horiz-adv-x="639" d="M63 -161V511H220V186Q220 147 240 126T298 105Q321 105 340 116T370 148T381 193V511H538V126Q538 107 547 99T568 90Q578 90 588 93T607 101V12Q594 2 572 -4T516 -10Q478 -10 453 0T414 30T392 73Q378 43 349
19T276 -6Q259 -6 242 -2T212 13Q215 -1 218 -18T221 -53V-161H63Z" />
<glyph unicode="&#xb6;" horiz-adv-x="566" d="M231 -164V252Q174 256 129 286T56 363T29 468Q29 531 58 580T137 657T246 686H528V616H462V-164H384V616H309V-164H231Z" />
<glyph unicode="&#xb7;" horiz-adv-x="274" d="M59 213V364H215V213H59Z" />
<glyph unicode="&#xb8;" horiz-adv-x="604" d="M294 -210Q265 -210 236 -203T186 -181L209 -125Q223 -135 241 -143T289 -151Q309 -151 322 -143T336 -116Q336 -100 325 -93T298 -86H277V-30H308Q336 -30 361 -38T402 -65T418 -117Q418 -151 399 -171T351 -201T294 -210Z" />
<glyph unicode="&#xb9;" horiz-adv-x="338" d="M44 422V492H131V695H44V748Q79 750 116 764T187 797H219V492H297V422H44Z" />
<glyph unicode="&#xba;" horiz-adv-x="396" d="M196 378Q125 378 83 419T40 532V544Q40 616 84 657T199 698Q271 698 314 656T357 544V532Q357 460 312 419T196 378ZM198 441Q221 441 237 457T254 504V572Q254 601 238 618T198 635Q176 635 160 618T143 572V504Q143
474 159 458T198 441Z" />
<glyph unicode="&#xbb;" horiz-adv-x="447" d="M43 163L131 337L43 511H107L228 337L107 163H43ZM224 163L312 337L224 511H289L410 337L289 163H224Z" />
<glyph unicode="&#xbc;" horiz-adv-x="874" d="M44 568V638H131V841H44V894Q79 896 116 910T187 943H219V638H297V568H44ZM178 0L598 686H673L256 0H178ZM699 0V86H540V154Q549 170 563 197T591 257T617 320T635 375H716Q711 351 698 320T669 258T635 199T604
154H699V230Q707 241 716 260T733 298T745 331H783V154H834V86H783V0H699Z" />
<glyph unicode="&#xbd;" horiz-adv-x="886" d="M44 568V638H131V841H44V894Q79 896 116 910T187 943H219V638H297V568H44ZM178 0L598 686H673L256 0H178ZM557 1V20Q557 52 569 75T605 118L711 200Q727 212 736 228T745 263Q745 285 731 298T690 312Q668 312 654
298T639 262Q639 258 639 255T639 246H559Q559 249 559 252T559 258Q559 311 597 347T697 384Q764 384 799 352T835 266Q835 228 819 201T776 154L700 100Q691 94 686 88T676 77H835V1H557Z" />
<glyph unicode="&#xbe;" horiz-adv-x="894" d="M174 564Q99 564 65 592T31 672V684H110V677Q110 658 126 645T169 632Q196 632 213 645T231 684Q231 711 216 722T180 733H127V791H173Q194 791 208 802T223 839Q223 861 209 872T170 884Q148 884 133 872T118 843V837H41V850Q41
895 78 923T176 952Q238 952 274 925T310 851Q310 820 295 798T259 767Q285 757 302 737T320 679Q320 629 280 597T174 564ZM197 0L617 686H692L275 0H197ZM719 0V86H560V154Q569 170 583 197T611 257T637 320T655 375H736Q731 351 718 320T689 258T655 199T624
154H719V230Q727 241 736 260T753 298T765 331H803V154H854V86H803V0H719Z" />
<glyph unicode="&#xbf;" horiz-adv-x="554" d="M342 308V236Q342 209 328 188T294 147T253 108T218 65T204 9Q204 -9 213 -28T241 -59T290 -72Q319 -72 337 -62T364 -35T376 -2T379 32Q379 44 379 51T378 59H526Q527 50 528 41T529 20Q529 -12 518 -42T485 -98T433
-143T362 -174T274 -185Q215 -185 170 -169T96 -125T51 -60T36 15Q36 64 53 97T95 153T144 193T186 228T203 267V308H342ZM351 511V360H195V511H351Z" />
<glyph unicode="&#xc0;" horiz-adv-x="693" d="M1 0L246 686H448L692 0H518L469 136H211L163 0H1ZM251 254H429L343 513H338L251 254ZM550 749L429 886L430 889H570L665 749H550Z" />
<glyph unicode="&#xc1;" horiz-adv-x="693" d="M1 0L246 686H448L692 0H518L469 136H211L163 0H1ZM251 254H429L343 513H338L251 254ZM292 749L387 889H527L528 886L407 749H292Z" />
<glyph unicode="&#xc2;" horiz-adv-x="693" d="M1 0L246 686H448L692 0H518L469 136H211L163 0H1ZM251 254H429L343 513H338L251 254ZM159 753L272 885H421L533 753H419L330 855H363L273 753H159Z" />
<glyph unicode="&#xc3;" horiz-adv-x="693" d="M1 0L246 686H448L692 0H518L469 136H211L163 0H1ZM251 254H429L343 513H338L251 254ZM151 750Q154 789 167 820T206 870T268 889Q304 889 331 879T380 857T424 846Q445 846 456 857T472 888H541Q539 851 525 820T486
769T424 750Q388 750 361 760T312 782T267 793Q248 793 237 782T220 750H151Z" />
<glyph unicode="&#xc4;" horiz-adv-x="693" d="M1 0L246 686H448L692 0H518L469 136H211L163 0H1ZM251 254H429L343 513H338L251 254ZM164 757V879H288V757H164ZM404 757V879H528V757H404Z" />
<glyph unicode="&#xc5;" horiz-adv-x="693" d="M1 0L246 686H448L692 0H518L469 136H211L163 0H1ZM251 254H429L343 513H338L251 254ZM345 724Q300 724 270 752T240 826Q240 872 271 901T347 930Q392 930 422 902T452 828Q452 783 422 754T345 724ZM346 785Q365
785 376 797T387 827Q387 845 376 857T346 869Q328 869 317 857T306 827Q306 809 317 797T346 785Z" />
<glyph unicode="&#xc6;" horiz-adv-x="1001" d="M-4 0L336 686H964L946 558H564L598 412H927V288H625L661 130H950L967 0H522L492 136H225L157 0H-4ZM283 254H467L408 512H404L283 254Z" />
<glyph unicode="&#xc7;" horiz-adv-x="678" d="M343 -10Q281 -10 227 8T132 65T68 162T45 301V385Q45 463 68 521T133 618T227 676T341 696H363Q420 696 470 680T559 629T618 541T640 413H483Q483 474 468 508T422 556T351 570Q322 570 299 562T258 535T232 489T222
420V266Q222 214 238 181T283 132T351 116Q397 116 427 130T474 177T490 272H640Q640 203 619 150T560 62T472 8T365 -10H343ZM337 -210Q308 -210 279 -203T229 -181L252 -125Q266 -135 284 -143T332 -151Q352 -151 365 -143T379 -116Q379 -100 368 -93T341 -86H320V-30H351Q379
-30 404 -38T445 -65T461 -117Q461 -151 442 -171T394 -201T337 -210Z" />
<glyph unicode="&#xc8;" horiz-adv-x="598" d="M71 0V686H561L544 558H236V412H524V288H236V128H546L564 0H71ZM522 749L401 886L402 889H542L637 749H522Z" />
<glyph unicode="&#xc9;" horiz-adv-x="598" d="M71 0V686H561L544 558H236V412H524V288H236V128H546L564 0H71ZM264 749L359 889H499L500 886L379 749H264Z" />
<glyph unicode="&#xca;" horiz-adv-x="598" d="M71 0V686H561L544 558H236V412H524V288H236V128H546L564 0H71ZM131 753L244 885H393L505 753H391L302 855H335L245 753H131Z" />
<glyph unicode="&#xcb;" horiz-adv-x="598" d="M71 0V686H561L544 558H236V412H524V288H236V128H546L564 0H71ZM136 757V879H260V757H136ZM376 757V879H500V757H376Z" />
<glyph unicode="&#xcc;" horiz-adv-x="423" d="M47 0V122H128V564H47V686H376V564H296V122H376V0H47ZM159 749L38 886L39 889H179L274 749H159Z" />
<glyph unicode="&#xcd;" horiz-adv-x="423" d="M47 0V122H128V564H47V686H376V564H296V122H376V0H47ZM413 749L508 889H648L649 886L528 749H413Z" />
<glyph unicode="&#xce;" horiz-adv-x="423" d="M47 0V122H128V564H47V686H376V564H296V122H376V0H47ZM280 753L393 885H542L654 753H540L451 855H484L394 753H280Z" />
<glyph unicode="&#xcf;" horiz-adv-x="423" d="M47 0V122H128V564H47V686H376V564H296V122H376V0H47ZM285 757V879H409V757H285ZM525 757V879H649V757H525Z" />
<glyph unicode="&#xd0;" horiz-adv-x="691" d="M71 0V686H355Q416 686 468 667T561 610T624 517T647 389V314Q647 242 625 185T562 86T469 22T355 0H71ZM239 128H341Q377 128 406 145T453 195T470 279V418Q470 468 453 499T407 545T341 560H239V128ZM261 553V656H640V553H261Z"
/>
<glyph unicode="&#xd1;" horiz-adv-x="695" d="M71 0V686H211L433 358L468 297L472 299V686H625V0H481L252 339L228 384L224 383V0H71ZM156 750Q159 789 172 820T211 870T273 889Q309 889 336 879T385 857T429 846Q450 846 461 857T477 888H546Q544 851 530 820T491
769T429 750Q393 750 366 760T317 782T272 793Q253 793 242 782T225 750H156Z" />
<glyph unicode="&#xd2;" horiz-adv-x="710" d="M335 -10Q275 -10 223 11T130 72T68 170T45 301V384Q45 457 67 515T130 613T222 674T335 695H376Q436 695 488 674T581 613T643 515T666 384V301Q666 228 644 170T581 72T489 11T376 -10H335ZM355 116Q384 116 408
125T450 152T479 199T489 266V419Q489 458 479 486T451 532T408 560T356 569Q328 569 304 560T261 533T232 486T222 419V266Q222 227 232 199T260 153T303 125T355 116ZM559 749L438 886L439 889H579L674 749H559Z" />
<glyph unicode="&#xd3;" horiz-adv-x="710" d="M335 -10Q275 -10 223 11T130 72T68 170T45 301V384Q45 457 67 515T130 613T222 674T335 695H376Q436 695 488 674T581 613T643 515T666 384V301Q666 228 644 170T581 72T489 11T376 -10H335ZM355 116Q384 116 408
125T450 152T479 199T489 266V419Q489 458 479 486T451 532T408 560T356 569Q328 569 304 560T261 533T232 486T222 419V266Q222 227 232 199T260 153T303 125T355 116ZM301 749L396 889H536L537 886L416 749H301Z" />
<glyph unicode="&#xd4;" horiz-adv-x="710" d="M335 -10Q275 -10 223 11T130 72T68 170T45 301V384Q45 457 67 515T130 613T222 674T335 695H376Q436 695 488 674T581 613T643 515T666 384V301Q666 228 644 170T581 72T489 11T376 -10H335ZM355 116Q384 116 408
125T450 152T479 199T489 266V419Q489 458 479 486T451 532T408 560T356 569Q328 569 304 560T261 533T232 486T222 419V266Q222 227 232 199T260 153T303 125T355 116ZM168 753L281 885H430L542 753H428L339 855H372L282 753H168Z" />
<glyph unicode="&#xd5;" horiz-adv-x="710" d="M335 -10Q275 -10 223 11T130 72T68 170T45 301V384Q45 457 67 515T130 613T222 674T335 695H376Q436 695 488 674T581 613T643 515T666 384V301Q666 228 644 170T581 72T489 11T376 -10H335ZM355 116Q384 116 408
125T450 152T479 199T489 266V419Q489 458 479 486T451 532T408 560T356 569Q328 569 304 560T261 533T232 486T222 419V266Q222 227 232 199T260 153T303 125T355 116ZM160 750Q163 789 176 820T215 870T277 889Q313 889 340 879T389 857T433 846Q454 846 465
857T481 888H550Q548 851 534 820T495 769T433 750Q397 750 370 760T321 782T276 793Q257 793 246 782T229 750H160Z" />
<glyph unicode="&#xd6;" horiz-adv-x="710" d="M335 -10Q275 -10 223 11T130 72T68 170T45 301V384Q45 457 67 515T130 613T222 674T335 695H376Q436 695 488 674T581 613T643 515T666 384V301Q666 228 644 170T581 72T489 11T376 -10H335ZM355 116Q384 116 408
125T450 152T479 199T489 266V419Q489 458 479 486T451 532T408 560T356 569Q328 569 304 560T261 533T232 486T222 419V266Q222 227 232 199T260 153T303 125T355 116ZM173 757V879H297V757H173ZM413 757V879H537V757H413Z" />
<glyph unicode="&#xd7;" horiz-adv-x="615" d="M165 37L88 113L230 256L88 399L165 475L307 333L450 475L527 399L384 256L526 113L450 37L307 179L165 37Z" />
<glyph unicode="&#xd8;" horiz-adv-x="710" d="M335 -10Q275 -10 223 11T130 72T68 170T45 301V384Q45 457 67 515T130 613T222 674T335 695H376Q436 695 488 674T581 613T643 515T666 384V301Q666 228 644 170T581 72T489 11T376 -10H335ZM355 116Q384 116 408
125T450 152T479 199T489 266V419Q489 458 479 486T451 532T408 560T356 569Q328 569 304 560T261 533T232 486T222 419V266Q222 227 232 199T260 153T303 125T355 116ZM60 177L557 996H647L150 177H60Z" />
<glyph unicode="&#xd9;" horiz-adv-x="685" d="M319 -10Q241 -10 184 19T97 100T66 221V686H233V222Q233 175 263 146T343 116Q392 116 422 145T452 222V686H619V221Q619 152 585 100T491 19T352 -10H319ZM547 749L426 886L427 889H567L662 749H547Z" />
<glyph unicode="&#xda;" horiz-adv-x="685" d="M319 -10Q241 -10 184 19T97 100T66 221V686H233V222Q233 175 263 146T343 116Q392 116 422 145T452 222V686H619V221Q619 152 585 100T491 19T352 -10H319ZM289 749L384 889H524L525 886L404 749H289Z" />
<glyph unicode="&#xdb;" horiz-adv-x="685" d="M319 -10Q241 -10 184 19T97 100T66 221V686H233V222Q233 175 263 146T343 116Q392 116 422 145T452 222V686H619V221Q619 152 585 100T491 19T352 -10H319ZM156 753L269 885H418L530 753H416L327 855H360L270 753H156Z" />
<glyph unicode="&#xdc;" horiz-adv-x="685" d="M319 -10Q241 -10 184 19T97 100T66 221V686H233V222Q233 175 263 146T343 116Q392 116 422 145T452 222V686H619V221Q619 152 585 100T491 19T352 -10H319ZM161 757V879H285V757H161ZM401 757V879H525V757H401Z" />
<glyph unicode="&#xdd;" horiz-adv-x="626" d="M229 0V264L-3 686H185L318 422H322L458 686H628L397 264V0H229ZM268 749L363 889H503L504 886L383 749H268Z" />
<glyph unicode="&#xde;" horiz-adv-x="643" d="M71 0V686H238V574H413Q469 574 515 547T588 474T616 371Q616 308 589 259T515 182T411 154H238V0H71ZM238 276H370Q408 276 428 299T448 361Q448 401 428 424T370 448H238V276Z" />
<glyph unicode="&#xdf;" horiz-adv-x="642" d="M97 -66V396H37V511H97Q100 580 135 628T226 702T345 728Q389 728 431 718T507 684T561 626T581 542Q581 510 570 480T537 428T485 393L486 389Q539 370 572 322T606 215Q606 146 576 98T492 25T371 0H300V120H346Q374
120 398 134T436 172T450 226Q450 255 436 279T399 318T346 332H300V433H342Q367 433 387 444T419 476T431 520Q431 545 420 565T390 596T345 608Q305 608 280 581T254 512V-66H97Z" />
<glyph unicode="&#xe0;" horiz-adv-x="613" d="M196 -10Q155 -10 118 4T58 49T34 135Q34 189 57 223T125 277T232 303T372 311V352Q372 392 350 408T288 425Q252 425 227 409T202 362V355H51Q50 358 50 362T50 372Q50 415 78 449T157 502T278 521H303Q415 521
470 478T525 362V126Q525 107 534 99T555 90Q565 90 575 93T594 101V12Q581 2 559 -4T503 -10Q465 -10 439 1T398 32T380 76Q352 40 307 15T196 -10ZM274 90Q299 90 321 101T358 135T372 191V232Q314 232 275 224T217 199T197 152Q197 117 218 104T274 90ZM494
586L380 757L381 760H515L600 586H494Z" />
<glyph unicode="&#xe1;" horiz-adv-x="613" d="M196 -10Q155 -10 118 4T58 49T34 135Q34 189 57 223T125 277T232 303T372 311V352Q372 392 350 408T288 425Q252 425 227 409T202 362V355H51Q50 358 50 362T50 372Q50 415 78 449T157 502T278 521H303Q415 521
470 478T525 362V126Q525 107 534 99T555 90Q565 90 575 93T594 101V12Q581 2 559 -4T503 -10Q465 -10 439 1T398 32T380 76Q352 40 307 15T196 -10ZM274 90Q299 90 321 101T358 135T372 191V232Q314 232 275 224T217 199T197 152Q197 117 218 104T274 90ZM232
586L317 760H451L452 757L338 586H232Z" />
<glyph unicode="&#xe2;" horiz-adv-x="613" d="M196 -10Q155 -10 118 4T58 49T34 135Q34 189 57 223T125 277T232 303T372 311V352Q372 392 350 408T288 425Q252 425 227 409T202 362V355H51Q50 358 50 362T50 372Q50 415 78 449T157 502T278 521H303Q415 521
470 478T525 362V126Q525 107 534 99T555 90Q565 90 575 93T594 101V12Q581 2 559 -4T503 -10Q465 -10 439 1T398 32T380 76Q352 40 307 15T196 -10ZM274 90Q299 90 321 101T358 135T372 191V232Q314 232 275 224T217 199T197 152Q197 117 218 104T274 90ZM350
581L482 760H606L738 581H622L505 739H582L465 581H350Z" />
<glyph unicode="&#xe3;" horiz-adv-x="613" d="M196 -10Q155 -10 118 4T58 49T34 135Q34 189 57 223T125 277T232 303T372 311V352Q372 392 350 408T288 425Q252 425 227 409T202 362V355H51Q50 358 50 362T50 372Q50 415 78 449T157 502T278 521H303Q415 521
470 478T525 362V126Q525 107 534 99T555 90Q565 90 575 93T594 101V12Q581 2 559 -4T503 -10Q465 -10 439 1T398 32T380 76Q352 40 307 15T196 -10ZM274 90Q299 90 321 101T358 135T372 191V232Q314 232 275 224T217 199T197 152Q197 117 218 104T274 90ZM342
591Q344 633 358 668T399 724T464 745Q501 745 528 731T579 703T624 688Q647 688 660 703T678 746H746Q744 704 730 669T689 612T625 591Q588 591 560 605T508 634T462 649Q441 649 429 634T411 591H342Z" />
<glyph unicode="&#xe4;" horiz-adv-x="613" d="M196 -10Q155 -10 118 4T58 49T34 135Q34 189 57 223T125 277T232 303T372 311V352Q372 392 350 408T288 425Q252 425 227 409T202 362V355H51Q50 358 50 362T50 372Q50 415 78 449T157 502T278 521H303Q415 521
470 478T525 362V126Q525 107 534 99T555 90Q565 90 575 93T594 101V12Q581 2 559 -4T503 -10Q465 -10 439 1T398 32T380 76Q352 40 307 15T196 -10ZM274 90Q299 90 321 101T358 135T372 191V232Q314 232 275 224T217 199T197 152Q197 117 218 104T274 90ZM362
606V728H486V606H362ZM602 606V728H726V606H602Z" />
<glyph unicode="&#xe5;" horiz-adv-x="613" d="M196 -10Q155 -10 118 4T58 49T34 135Q34 189 57 223T125 277T232 303T372 311V352Q372 392 350 408T288 425Q252 425 227 409T202 362V355H51Q50 358 50 362T50 372Q50 415 78 449T157 502T278 521H303Q415 521
470 478T525 362V126Q525 107 534 99T555 90Q565 90 575 93T594 101V12Q581 2 559 -4T503 -10Q465 -10 439 1T398 32T380 76Q352 40 307 15T196 -10ZM274 90Q299 90 321 101T358 135T372 191V232Q314 232 275 224T217 199T197 152Q197 117 218 104T274 90ZM543
572Q498 572 468 600T438 674Q438 720 468 749T545 778Q590 778 620 750T650 675Q650 630 620 601T543 572ZM544 633Q562 633 573 645T584 675Q584 692 573 704T544 716Q525 716 514 704T503 674Q503 657 514 645T544 633Z" />
<glyph unicode="&#xe6;" horiz-adv-x="915" d="M204 -10Q161 -10 122 3T59 49T34 134Q34 188 57 222T125 276T232 303T372 311V352Q372 392 350 408T288 425Q252 425 227 409T201 362V355H51Q50 358 50 362T49 372Q49 415 77 449T157 502T277 521H302Q361 521
401 505T465 456Q495 489 533 505T622 521H641Q713 521 765 493T845 415T874 298V235H533Q533 193 542 161T574 109T634 90Q662 90 683 102T715 136T727 191H873Q873 133 845 88T764 16T639 -10H627Q558 -10 510 18T428 95Q400 62 367 39T295 3T204 -10ZM274 90Q299
90 321 101T358 135T372 191V232Q314 232 275 224T217 199T197 152Q197 117 218 104T274 90ZM533 311H719Q719 368 694 394T628 421Q588 421 562 393T533 311Z" />
<glyph unicode="&#xe7;" horiz-adv-x="563" d="M276 -10Q211 -10 157 22T71 111T39 239V273Q39 327 58 372T110 450T187 502T281 521H303Q374 521 424 494T502 419T529 307H393Q393 345 382 370T351 408T301 421Q261 421 234 394T206 316V197Q206 147 231 119T303
90Q336 90 357 101T390 137T401 204H529Q529 136 500 88T418 15T298 -10H276ZM294 -210Q265 -210 236 -203T186 -181L209 -125Q223 -135 241 -143T289 -151Q309 -151 322 -143T336 -116Q336 -100 325 -93T298 -86H277V-30H308Q336 -30 361 -38T402 -65T418 -117Q418
-151 399 -171T351 -201T294 -210Z" />
<glyph unicode="&#xe8;" horiz-adv-x="589" d="M294 -10Q219 -10 162 19T72 105T39 242V269Q39 350 72 406T164 492T297 521H316Q388 521 440 493T520 415T548 298V235H206Q206 193 215 160T246 109T303 90Q334 90 355 102T389 136T401 191H547Q547 133 517 88T432
16T306 -10H294ZM206 311H393Q393 368 368 394T302 421Q261 421 235 393T206 311ZM506 586L392 757L393 760H527L612 586H506Z" />
<glyph unicode="&#xe9;" horiz-adv-x="589" d="M294 -10Q219 -10 162 19T72 105T39 242V269Q39 350 72 406T164 492T297 521H316Q388 521 440 493T520 415T548 298V235H206Q206 193 215 160T246 109T303 90Q334 90 355 102T389 136T401 191H547Q547 133 517 88T432
16T306 -10H294ZM206 311H393Q393 368 368 394T302 421Q261 421 235 393T206 311ZM245 586L330 760H464L465 757L351 586H245Z" />
<glyph unicode="&#xea;" horiz-adv-x="589" d="M294 -10Q219 -10 162 19T72 105T39 242V269Q39 350 72 406T164 492T297 521H316Q388 521 440 493T520 415T548 298V235H206Q206 193 215 160T246 109T303 90Q334 90 355 102T389 136T401 191H547Q547 133 517 88T432
16T306 -10H294ZM206 311H393Q393 368 368 394T302 421Q261 421 235 393T206 311ZM363 581L495 760H619L751 581H635L518 739H595L478 581H363Z" />
<glyph unicode="&#xeb;" horiz-adv-x="589" d="M294 -10Q219 -10 162 19T72 105T39 242V269Q39 350 72 406T164 492T297 521H316Q388 521 440 493T520 415T548 298V235H206Q206 193 215 160T246 109T303 90Q334 90 355 102T389 136T401 191H547Q547 133 517 88T432
16T306 -10H294ZM206 311H393Q393 368 368 394T302 421Q261 421 235 393T206 311ZM375 606V728H499V606H375ZM615 606V728H739V606H615Z" />
<glyph unicode="&#xec;" horiz-adv-x="285" d="M64 0V511H221V0H64ZM93 586L-21 757L-20 760H114L199 586H93Z" />
<glyph unicode="&#xed;" horiz-adv-x="285" d="M64 0V511H221V0H64ZM343 586L428 760H562L563 757L449 586H343Z" />
<glyph unicode="&#xee;" horiz-adv-x="285" d="M64 0V511H221V0H64ZM-18 581L89 760H198L304 581H201L107 738H178L84 581H-18Z" />
<glyph unicode="&#xef;" horiz-adv-x="285" d="M64 0V511H221V0H64ZM-16 606V728H108V606H-16ZM179 606V728H302V606H179Z" />
<glyph unicode="&#xf0;" horiz-adv-x="604" d="M290 -10Q218 -10 161 22T72 111T39 246V265Q39 332 64 389T137 482T246 517Q265 517 282 515T313 507Q301 525 279 547T233 591L157 555L107 598L189 637Q170 654 148 669T105 694L198 735Q221 725 245 713T292
686L372 724L418 680L348 647Q409 600 458 539T536 408T565 265V246Q565 169 533 112T444 22T314 -10H290ZM302 90Q329 90 350 103T385 140T398 198V313Q398 347 385 371T351 408T302 421Q275 421 254 408T219 371T206 313V198Q206 165 219 141T253 103T302 90Z"
/>
<glyph unicode="&#xf1;" horiz-adv-x="598" d="M62 0V511H179L197 437Q228 480 269 500T365 521Q417 521 455 502T515 446T536 360V0H379V324Q379 365 358 386T303 407Q280 407 261 395T231 364T219 319V0H62ZM350 591Q352 633 366 668T407 724T472 745Q509 745
536 731T587 703T632 688Q655 688 668 703T686 746H754Q752 704 738 669T697 612T633 591Q596 591 568 605T516 634T470 649Q449 649 437 634T419 591H350Z" />
<glyph unicode="&#xf2;" horiz-adv-x="604" d="M290 -10Q218 -10 161 22T72 111T39 246V265Q39 343 71 400T161 489T290 521H314Q386 521 443 490T532 401T565 265V246Q565 169 533 111T443 22T314 -10H290ZM302 90Q329 90 350 103T385 140T398 198V313Q398 347
385 371T351 408T302 421Q275 421 254 408T219 371T206 313V198Q206 165 219 141T253 103T302 90ZM508 586L394 757L395 760H529L614 586H508Z" />
<glyph unicode="&#xf3;" horiz-adv-x="604" d="M290 -10Q218 -10 161 22T72 111T39 246V265Q39 343 71 400T161 489T290 521H314Q386 521 443 490T532 401T565 265V246Q565 169 533 111T443 22T314 -10H290ZM302 90Q329 90 350 103T385 140T398 198V313Q398 347
385 371T351 408T302 421Q275 421 254 408T219 371T206 313V198Q206 165 219 141T253 103T302 90ZM247 586L332 760H466L467 757L353 586H247Z" />
<glyph unicode="&#xf4;" horiz-adv-x="604" d="M290 -10Q218 -10 161 22T72 111T39 246V265Q39 343 71 400T161 489T290 521H314Q386 521 443 490T532 401T565 265V246Q565 169 533 111T443 22T314 -10H290ZM302 90Q329 90 350 103T385 140T398 198V313Q398 347
385 371T351 408T302 421Q275 421 254 408T219 371T206 313V198Q206 165 219 141T253 103T302 90ZM109 581L241 760H365L497 581H381L264 739H341L224 581H109Z" />
<glyph unicode="&#xf5;" horiz-adv-x="604" d="M290 -10Q218 -10 161 22T72 111T39 246V265Q39 343 71 400T161 489T290 521H314Q386 521 443 490T532 401T565 265V246Q565 169 533 111T443 22T314 -10H290ZM302 90Q329 90 350 103T385 140T398 198V313Q398 347
385 371T351 408T302 421Q275 421 254 408T219 371T206 313V198Q206 165 219 141T253 103T302 90ZM101 591Q103 633 117 668T158 724T223 745Q260 745 287 731T338 703T383 688Q406 688 419 703T437 746H505Q503 704 489 669T448 612T384 591Q347 591 319 605T267
634T221 649Q200 649 188 634T170 591H101Z" />
<glyph unicode="&#xf6;" horiz-adv-x="604" d="M290 -10Q218 -10 161 22T72 111T39 246V265Q39 343 71 400T161 489T290 521H314Q386 521 443 490T532 401T565 265V246Q565 169 533 111T443 22T314 -10H290ZM302 90Q329 90 350 103T385 140T398 198V313Q398 347
385 371T351 408T302 421Q275 421 254 408T219 371T206 313V198Q206 165 219 141T253 103T302 90ZM121 606V728H245V606H121ZM361 606V728H485V606H361Z" />
<glyph unicode="&#xf7;" horiz-adv-x="616" d="M52 202V311H564V202H52ZM254 32V143H363V32H254ZM254 370V480H363V370H254Z" />
<glyph unicode="&#xf8;" horiz-adv-x="604" d="M290 -10Q218 -10 161 22T72 111T39 246V265Q39 343 71 400T161 489T290 521H314Q386 521 443 490T532 401T565 265V246Q565 169 533 111T443 22T314 -10H290ZM302 90Q329 90 350 103T385 140T398 198V313Q398 347
385 371T351 408T302 421Q275 421 254 408T219 371T206 313V198Q206 165 219 141T253 103T302 90ZM323 203L717 827H796L402 203H323Z" />
<glyph unicode="&#xf9;" horiz-adv-x="625" d="M225 -10Q147 -10 103 33T58 158V511H215V191Q215 148 233 127T289 105Q313 105 332 116T363 148T375 193V511H532V126Q532 107 541 99T562 90Q572 90 582 93T601 101V12Q588 2 566 -4T511 -10Q472 -10 447 0T408
30T387 73Q362 34 319 12T225 -10ZM502 586L388 757L389 760H523L608 586H502Z" />
<glyph unicode="&#xfa;" horiz-adv-x="625" d="M225 -10Q147 -10 103 33T58 158V511H215V191Q215 148 233 127T289 105Q313 105 332 116T363 148T375 193V511H532V126Q532 107 541 99T562 90Q572 90 582 93T601 101V12Q588 2 566 -4T511 -10Q472 -10 447 0T408
30T387 73Q362 34 319 12T225 -10ZM240 586L325 760H459L460 757L346 586H240Z" />
<glyph unicode="&#xfb;" horiz-adv-x="625" d="M225 -10Q147 -10 103 33T58 158V511H215V191Q215 148 233 127T289 105Q313 105 332 116T363 148T375 193V511H532V126Q532 107 541 99T562 90Q572 90 582 93T601 101V12Q588 2 566 -4T511 -10Q472 -10 447 0T408
30T387 73Q362 34 319 12T225 -10ZM358 581L490 760H614L746 581H630L513 739H590L473 581H358Z" />
<glyph unicode="&#xfc;" horiz-adv-x="625" d="M225 -10Q147 -10 103 33T58 158V511H215V191Q215 148 233 127T289 105Q313 105 332 116T363 148T375 193V511H532V126Q532 107 541 99T562 90Q572 90 582 93T601 101V12Q588 2 566 -4T511 -10Q472 -10 447 0T408
30T387 73Q362 34 319 12T225 -10ZM370 606V728H494V606H370ZM610 606V728H734V606H610Z" />
<glyph unicode="&#xfd;" horiz-adv-x="542" d="M129 -186Q101 -186 79 -183T40 -172V-63Q51 -68 70 -72T109 -76Q138 -76 154 -65T181 -33T199 12L5 511H173L278 199H285L382 511H537L356 30Q334 -31 303 -80T230 -157T129 -186ZM221 586L306 760H440L441 757L327
586H221Z" />
<glyph unicode="&#xfe;" horiz-adv-x="601" d="M62 -181V720H219V468Q242 492 275 506T351 521Q411 521 459 496T534 414T562 268V247Q562 162 534 105T460 19T360 -10Q307 -10 273 9T219 58V-181H62ZM308 91Q333 91 352 104T383 141T395 199V307Q395 344 384
369T353 406T308 419Q284 419 264 407T231 370T219 307V199Q219 165 231 141T263 104T308 91Z" />
<glyph unicode="&#xff;" horiz-adv-x="542" d="M129 -186Q101 -186 79 -183T40 -172V-63Q51 -68 70 -72T109 -76Q138 -76 154 -65T181 -33T199 12L5 511H173L278 199H285L382 511H537L356 30Q334 -31 303 -80T230 -157T129 -186ZM351 606V728H475V606H351ZM591
606V728H715V606H591Z" />
<glyph unicode="&#x2013;" horiz-adv-x="500" d="M0 208V338H500V208H0Z" />
<glyph unicode="&#x2014;" horiz-adv-x="910" d="M0 208V338H910V208H0Z" />
<glyph unicode="&#x2018;" horiz-adv-x="260" d="M204 702V683Q170 648 154 611T138 534H204V373H55V509Q55 564 73 613T126 702H204Z" />
<glyph unicode="&#x2019;" horiz-adv-x="253" d="M55 373V392Q89 427 105 464T121 541H55V702H204V566Q204 511 186 462T133 373H55Z" />
<glyph unicode="&#x201a;" horiz-adv-x="274" d="M65 -168V-149Q98 -115 114 -78T131 0H65V151H214V25Q214 -30 196 -79T143 -168H65Z" />
<glyph unicode="&#x201c;" horiz-adv-x="462" d="M454 702V683Q420 648 404 611T388 534H454V373H305V509Q305 564 323 613T376 702H454ZM408 702V683Q374 648 358 611T342 534H408V373H259V509Q259 564 277 613T330 702H408Z" />
<glyph unicode="&#x201d;" horiz-adv-x="472" d="M55 373V392Q89 427 105 464T121 541H55V702H204V566Q204 511 186 462T133 373H55ZM264 373V392Q298 427 314 464T330 541H264V702H413V566Q413 511 395 462T342 373H264Z" />
<glyph unicode="&#x201e;" horiz-adv-x="483" d="M66 -168V-149Q99 -115 115 -78T132 0H66V151H215V25Q215 -30 197 -79T144 -168H66ZM275 -168V-149Q308 -115 324 -78T341 0H275V151H424V25Q424 -30 406 -79T353 -168H275Z" />
<glyph unicode="&#x2022;" horiz-adv-x="600" d="M299 180Q254 180 218 202T159 261T137 343Q137 389 159 425T217 484T299 506Q344 506 381 484T441 426T463 343Q463 299 441 262T382 202T299 180Z" />
<glyph unicode="&#x2039;" horiz-adv-x="266" d="M156 163L36 337L156 511H221L133 337L221 163H156Z" />
<glyph unicode="&#x203a;" horiz-adv-x="266" d="M43 163L131 337L43 511H107L228 337L107 163H43Z" />
</font>
</defs>
</svg>
